<?xml version="1.0" standalone="no"?>
<!DOCTYPE svg PUBLIC "-//W3C//DTD SVG 20010904//EN"
 "http://www.w3.org/TR/2001/REC-SVG-20010904/DTD/svg10.dtd">
<svg version="1.0" xmlns="http://www.w3.org/2000/svg"
 width="650.000000pt" height="533.000000pt" viewBox="0 0 650.000000 533.000000"
 preserveAspectRatio="xMidYMid meet">
<metadata>
Created by potrace 1.16, written by Peter Selinger 2001-2019
</metadata>
<g transform="translate(0.000000,533.000000) scale(0.100000,-0.100000)"
fill="#000000" stroke="none">
<path d="M1070 5326 c-3 -3 -21 -7 -40 -9 -19 -3 -64 -14 -100 -26 -67 -21
-113 -28 -75 -10 l20 9 -20 -3 c-11 -2 -19 -8 -18 -15 4 -16 -56 -45 -91 -44
-20 0 -26 -2 -17 -8 10 -6 8 -10 -10 -16 -13 -4 -31 -8 -39 -8 -8 -1 -14 -6
-13 -13 2 -6 -13 -18 -32 -24 -19 -7 -35 -17 -35 -22 0 -4 -5 -5 -10 -2 -6 4
-8 11 -4 16 3 6 -3 5 -14 -2 -17 -11 -19 -16 -9 -28 9 -12 9 -13 0 -7 -7 4
-13 2 -13 -3 0 -6 -6 -11 -13 -11 -7 0 -18 -9 -25 -21 -7 -12 -16 -18 -19 -15
-4 3 -12 -3 -20 -14 -15 -22 -39 -28 -27 -7 5 8 2 7 -9 -2 -10 -8 -15 -16 -12
-19 9 -9 -38 -52 -57 -52 -10 0 -18 -6 -18 -14 0 -9 -7 -13 -19 -11 -11 2 -26
-4 -33 -13 -11 -15 -11 -16 2 -7 9 6 2 -2 -15 -17 -16 -15 -25 -28 -18 -28 6
0 14 6 16 13 3 7 6 5 6 -5 1 -10 -6 -18 -14 -18 -8 0 -15 -4 -15 -10 0 -5 -10
-10 -22 -11 -22 0 -22 -1 -3 -9 18 -8 18 -9 2 -9 -10 -1 -20 -8 -23 -16 -4 -8
-10 -12 -15 -9 -9 5 -11 0 -13 -28 -1 -7 -10 -17 -20 -23 -13 -6 -20 -21 -20
-40 -1 -16 -5 -36 -10 -44 -8 -12 -10 -24 -15 -71 -1 -13 -2 -13 -11 0 -6 9
-10 10 -10 3 0 -6 4 -14 9 -17 4 -3 8 -29 7 -58 -2 -46 -5 -53 -23 -56 -14 -2
-20 -8 -16 -18 3 -8 0 -14 -7 -14 -6 0 -8 -4 -5 -10 3 -5 -1 -10 -9 -10 -9 0
-16 -5 -16 -11 0 -5 6 -7 13 -3 9 6 9 5 0 -8 -7 -8 -9 -19 -5 -24 4 -4 0 -3
-9 4 -15 11 -16 9 -14 -18 2 -23 0 -28 -10 -20 -8 7 -11 4 -10 -10 1 -11 4
-23 8 -26 3 -4 3 -14 -2 -23 -14 -27 -14 -181 0 -197 8 -10 9 -18 3 -22 -12
-9 -12 -28 0 -39 6 -5 6 -2 1 7 -4 8 1 6 12 -5 11 -11 18 -24 15 -29 -3 -5 2
-7 11 -3 11 4 17 1 17 -8 0 -8 8 -19 18 -24 9 -6 12 -11 7 -11 -6 0 -11 -9
-11 -19 0 -11 4 -18 7 -15 4 2 10 0 14 -6 3 -5 2 -10 -4 -10 -6 0 -7 -7 -4
-17 4 -11 3 -14 -5 -9 -7 4 -12 3 -12 -3 0 -5 5 -13 10 -16 8 -5 7 -11 0 -20
-7 -8 -9 -23 -5 -35 4 -11 2 -20 -4 -20 -6 0 -11 -16 -11 -36 0 -19 4 -33 8
-30 5 3 8 -17 6 -44 -1 -33 1 -48 8 -44 6 4 8 1 6 -7 -3 -8 -1 -24 3 -37 6
-14 5 -21 0 -17 -5 3 -13 1 -16 -5 -4 -6 -3 -10 2 -9 19 3 34 -2 28 -10 -3 -5
-1 -12 5 -16 14 -9 1 -27 -13 -19 -7 4 -8 3 -4 -2 5 -5 13 -10 18 -10 5 -1 12
-2 15 -3 4 0 1 -8 -6 -16 -11 -13 -10 -14 4 -9 11 4 16 1 16 -10 0 -9 4 -16
10 -16 5 0 7 -7 4 -15 -4 -9 0 -15 10 -15 10 0 13 -6 10 -15 -4 -9 0 -15 7
-15 11 0 11 -2 2 -8 -9 -6 -4 -15 17 -34 16 -14 31 -24 33 -21 2 2 10 -3 16
-11 9 -11 9 -16 0 -22 -8 -5 -9 -3 -4 6 6 9 4 11 -4 5 -9 -5 -7 -13 10 -31 12
-13 25 -22 27 -19 3 3 -3 12 -14 21 -20 16 2 8 24 -9 9 -7 9 -13 2 -23 -9 -9
-7 -12 7 -10 20 3 53 -14 53 -27 0 -4 -5 -5 -11 -1 -8 4 -8 0 0 -15 14 -25 42
-41 73 -41 18 0 20 -2 8 -10 -10 -6 -11 -10 -2 -10 6 0 13 1 15 2 8 6 46 -25
41 -34 -4 -6 -3 -8 2 -5 12 7 24 -1 44 -28 15 -20 15 -20 -10 -1 -14 11 -11 6
7 -12 18 -18 38 -32 45 -32 9 0 9 -3 -2 -10 -12 -8 -9 -10 12 -10 15 0 33 -7
42 -15 8 -8 19 -15 24 -15 5 0 35 -12 67 -26 31 -14 79 -28 107 -30 28 -2 72
-10 97 -19 62 -20 134 -39 144 -37 4 1 3 -7 -3 -18 -6 -11 -19 -20 -30 -20
-10 0 -22 -5 -25 -11 -4 -6 -14 -8 -22 -5 -8 3 -11 1 -8 -4 3 -6 1 -10 -5 -10
-6 0 -8 -4 -5 -10 3 -5 -8 -18 -24 -28 -17 -10 -28 -22 -24 -25 3 -4 1 -7 -5
-7 -7 0 -12 -7 -12 -16 0 -10 -5 -14 -15 -10 -13 5 -14 2 -4 -17 11 -20 11
-21 -4 -8 -10 7 -17 12 -18 10 -6 -32 -5 -39 4 -39 7 0 5 -5 -3 -10 -8 -5 -11
-10 -6 -10 5 0 3 -7 -4 -15 -6 -8 -9 -19 -6 -24 4 -5 1 -13 -5 -17 -7 -4 -9
-3 -6 2 3 6 2 16 -3 23 -4 8 -7 -5 -5 -33 1 -25 -2 -46 -6 -46 -4 0 -6 -13 -4
-30 2 -18 -1 -30 -8 -30 -8 0 -7 -3 2 -9 9 -6 10 -11 2 -15 -15 -10 -14 -46 2
-46 9 0 9 -2 -1 -9 -11 -6 -10 -11 3 -25 10 -10 12 -16 5 -16 -8 0 -11 -11 -8
-29 2 -17 1 -28 -4 -25 -4 3 -8 -2 -8 -10 0 -9 5 -16 11 -16 6 0 9 -7 5 -15
-3 -8 -2 -14 2 -13 4 0 18 -4 32 -11 l25 -12 -25 5 c-21 4 -22 3 -10 -7 16
-13 21 -83 7 -104 -5 -8 -3 -13 5 -14 7 0 -33 -22 -88 -49 -68 -32 -110 -46
-127 -43 -13 3 -27 0 -31 -5 -4 -6 2 -8 14 -5 38 10 20 -6 -37 -32 -32 -14
-68 -24 -80 -22 -12 2 -28 0 -35 -5 -10 -7 -9 -8 4 -4 12 3 15 1 11 -9 -4 -11
-10 -12 -24 -5 -15 8 -17 7 -13 -5 5 -11 2 -14 -12 -8 -11 4 -15 3 -10 -5 4
-7 -6 -18 -24 -27 -16 -8 -30 -13 -30 -10 0 3 -9 -4 -20 -15 -20 -20 -46 -28
-36 -11 4 5 -5 4 -19 -2 -21 -10 -22 -13 -7 -19 16 -6 16 -7 0 -9 -34 -3 -36
-4 -45 -13 -4 -5 -3 -6 4 -2 15 8 27 -10 13 -19 -8 -5 -7 -11 1 -21 8 -10 8
-18 1 -27 -9 -11 -10 -36 -2 -57 1 -3 1 -13 0 -24 -1 -12 2 -16 11 -10 8 5 11
2 6 -8 -3 -9 -2 -19 3 -24 5 -5 10 -22 12 -39 2 -22 -1 -29 -12 -27 -12 3 -12
1 -3 -9 6 -6 9 -19 6 -28 -4 -13 -3 -14 5 -1 6 8 8 18 5 24 -3 5 -1 6 5 2 6
-4 8 -14 5 -23 -4 -10 -2 -14 4 -10 5 3 10 0 10 -8 0 -8 -4 -12 -8 -9 -4 2
-10 0 -14 -6 -3 -5 3 -10 14 -10 16 0 21 -6 21 -25 0 -14 6 -25 13 -25 8 0 9
-3 1 -8 -12 -8 -11 -31 4 -57 6 -12 11 -14 16 -6 4 6 3 11 -2 11 -6 0 -13 8
-16 17 -6 15 -5 15 13 -1 21 -19 23 -36 6 -48 -5 -4 0 -8 13 -8 13 0 20 -4 17
-10 -4 -6 -11 -7 -17 -4 -7 4 -8 2 -4 -5 4 -6 12 -8 18 -5 8 5 9 1 4 -11 -6
-16 -4 -16 11 -4 11 9 14 10 9 1 -8 -13 17 -45 27 -35 3 3 9 -6 12 -20 4 -14
13 -28 22 -31 8 -3 11 -10 8 -16 -3 -5 0 -10 7 -10 9 0 9 -3 -2 -10 -13 -8
-12 -10 3 -10 10 0 15 -5 12 -10 -4 -6 -1 -9 7 -8 7 2 12 -3 10 -11 -3 -12 -1
-12 13 -1 13 11 16 11 13 0 -2 -8 6 -16 17 -18 11 -2 25 -9 30 -16 6 -7 19
-16 31 -20 11 -3 30 -16 43 -27 19 -18 44 -26 88 -28 7 -1 17 -11 24 -22 9
-17 8 -20 -2 -14 -9 6 -11 3 -6 -11 7 -18 6 -18 -9 1 l-17 20 8 -20 c13 -36
14 -55 4 -55 -6 0 -7 -6 -4 -13 4 -6 -1 -3 -11 8 -15 18 -16 18 -10 1 3 -10 1
-26 -6 -35 -12 -15 -11 -15 6 -1 18 14 19 14 7 -7 -6 -13 -8 -23 -4 -23 4 0 1
-5 -7 -10 -10 -6 -11 -10 -3 -10 9 0 7 -6 -4 -19 -9 -11 -20 -18 -25 -15 -10
6 -11 -10 -1 -20 12 -11 14 -48 3 -41 -7 4 -9 -3 -6 -19 3 -14 0 -26 -5 -26
-6 0 -7 -4 -4 -10 3 -5 1 -10 -4 -10 -6 0 -11 5 -11 12 0 6 -3 9 -6 5 -3 -3
-2 -12 2 -19 17 -27 14 -47 -6 -43 -11 2 -20 0 -20 -6 0 -5 8 -9 18 -10 11 0
12 -2 4 -6 -10 -4 -10 -8 -1 -19 8 -10 8 -14 1 -14 -6 0 -9 -7 -5 -15 3 -9 2
-15 -3 -14 -21 4 -35 -2 -29 -11 4 -6 12 -8 18 -4 7 3 1 -4 -13 -16 -14 -12
-20 -19 -14 -16 6 3 11 -1 11 -9 0 -8 -4 -12 -9 -9 -4 3 -8 -1 -8 -8 0 -9 -3
-9 -10 2 -5 8 -10 10 -10 4 0 -6 3 -14 7 -18 11 -11 11 -46 0 -39 -6 4 -8 0
-4 -10 3 -10 2 -17 -2 -17 -5 0 -8 -12 -6 -27 3 -26 2 -26 -12 -8 -14 19 -15
19 -8 -4 5 -17 4 -22 -5 -16 -8 5 -11 3 -8 -6 3 -8 10 -13 15 -12 5 1 10 -7
10 -18 1 -10 -3 -19 -9 -19 -6 0 -8 -9 -5 -20 3 -11 2 -18 -3 -15 -4 3 -10
-13 -12 -34 -2 -22 0 -37 4 -35 14 9 48 -35 41 -52 -4 -11 -3 -15 5 -10 7 4 9
-4 5 -29 -5 -31 -3 -35 16 -35 17 0 21 6 21 35 0 19 -9 57 -20 85 -11 28 -20
60 -20 70 0 53 72 -11 90 -81 6 -23 14 -39 16 -36 13 13 -24 95 -59 130 l-38
38 16 48 c8 26 22 57 31 70 l16 23 39 -62 c49 -77 123 -151 180 -181 33 -17
61 -23 112 -24 60 0 71 3 88 24 11 13 19 39 19 58 0 29 3 34 18 29 40 -16 129
-74 169 -112 35 -33 43 -47 43 -77 0 -35 2 -37 31 -37 28 0 30 2 25 32 -3 18
0 39 7 47 9 11 9 13 0 8 -7 -4 -16 0 -22 10 -6 10 -11 15 -11 11 0 -9 -65 50
-65 60 -1 17 -18 33 -32 28 -10 -4 -13 -2 -10 8 8 19 -3 28 -19 15 -9 -7 -20
-6 -38 6 -14 10 -26 21 -26 25 0 4 -9 10 -21 13 -16 4 -19 10 -14 28 5 13 3
19 -3 15 -5 -3 -18 2 -29 12 -10 9 -12 13 -4 7 11 -8 13 -7 7 3 -4 7 -18 17
-30 22 -17 7 -18 9 -3 9 10 1 15 6 12 11 -4 6 -11 8 -16 5 -5 -4 -6 2 -2 12 6
16 5 17 -12 3 -17 -14 -17 -14 -7 6 7 14 7 25 0 35 -8 11 -9 11 -4 -3 3 -10 0
-20 -6 -24 -7 -4 -8 -3 -4 4 4 6 -3 21 -14 32 -18 18 -18 21 -4 18 9 -2 19 3
22 11 3 8 0 11 -7 7 -7 -5 -11 7 -11 38 0 26 -5 46 -13 49 -9 4 -9 6 1 6 15 1
16 41 1 41 -8 0 -8 5 1 15 7 8 10 22 6 30 -3 8 0 15 5 15 6 0 9 9 6 20 -3 10
0 21 7 24 8 3 7 7 -3 14 -9 6 -10 12 -3 16 6 4 9 13 5 21 -3 8 0 15 7 15 7 0
10 7 6 15 -3 8 -1 15 4 15 6 0 8 14 5 31 -3 18 -2 28 4 25 6 -4 8 5 7 21 -5
41 12 50 104 57 46 4 120 11 164 17 100 11 105 11 86 -1 -13 -8 -13 -10 1 -10
9 0 19 -7 23 -15 3 -8 1 -15 -4 -15 -6 0 -10 -7 -10 -15 0 -8 4 -15 9 -15 4 0
6 -12 3 -26 -3 -16 1 -30 9 -35 10 -6 10 -9 2 -9 -7 0 -13 -7 -13 -15 0 -8 5
-15 10 -15 6 0 8 -16 4 -42 -5 -29 -4 -39 4 -34 8 5 10 2 6 -9 -4 -8 -1 -22 6
-30 9 -10 9 -15 1 -15 -6 0 -11 -9 -11 -20 0 -11 4 -20 10 -20 5 0 7 -13 4
-30 -4 -19 -2 -30 4 -30 6 0 9 -7 6 -15 -4 -8 -1 -22 6 -30 10 -12 10 -15 -3
-15 -9 0 -19 -6 -23 -12 -4 -7 -4 -10 0 -6 13 11 33 -15 28 -34 -2 -10 0 -18
5 -18 5 0 9 -9 9 -20 0 -11 -6 -20 -13 -20 -8 0 -13 -11 -12 -27 l1 -28 8 25
8 25 3 -25 c1 -14 1 -44 0 -68 -2 -26 2 -42 9 -42 6 0 8 -5 5 -10 -4 -6 -2
-17 5 -25 7 -9 8 -15 0 -20 -5 -3 -10 -11 -10 -16 0 -6 5 -7 12 -3 7 5 9 2 5
-8 -3 -9 -3 -19 1 -22 8 -8 10 -46 3 -46 -3 0 -7 -11 -7 -26 -2 -22 -1 -23 11
-8 10 15 12 13 10 -14 -1 -17 2 -29 7 -26 4 3 11 -2 14 -10 3 -9 17 -16 31
-16 l25 0 -21 34 c-45 72 -12 76 61 9 30 -29 46 -39 39 -26 -15 29 -74 76
-103 83 -20 5 -24 15 -32 68 -5 39 -5 71 1 84 9 21 11 21 54 -19 53 -49 138
-103 197 -126 76 -30 190 -17 212 23 13 24 13 76 -1 101 -11 22 -8 22 101 -8
133 -37 175 -77 187 -174 l6 -49 43 0 c24 0 44 4 44 10 0 16 71 90 101 106 36
18 90 18 136 -1 l37 -16 -49 -49 -49 -50 45 0 c41 0 49 4 99 56 l55 55 -30 25
c-60 50 -106 68 -175 67 -78 0 -109 -14 -174 -80 -27 -26 -45 -42 -42 -35 4 6
2 12 -4 12 -6 0 -8 5 -5 10 3 6 1 10 -6 10 -7 0 -4 7 7 15 13 11 14 14 4 13
-9 -2 -14 3 -12 15 2 10 -3 17 -13 17 -9 0 -13 5 -9 11 4 8 0 9 -15 4 -14 -4
-21 -2 -21 7 0 7 -10 14 -22 15 -13 1 -67 17 -121 36 -106 38 -199 89 -195
108 2 6 -4 14 -12 16 -13 4 -13 3 0 -7 13 -10 13 -11 0 -7 -8 2 -20 12 -25 23
-6 10 -17 20 -25 22 -26 6 -39 35 -27 57 14 25 14 23 17 98 l3 62 7 -65 7 -65
1 62 c2 55 4 62 25 66 16 3 12 5 -13 7 l-35 2 38 8 c69 13 632 18 2637 23
1003 2 1271 1 650 -2 l-1055 -6 1048 -3 1047 -2 1 -22 c1 -22 1 -22 10 2 8 23
8 22 6 -7 -3 -26 -1 -30 9 -22 10 8 12 6 9 -10 -2 -11 1 -24 7 -27 7 -4 8 -2
4 4 -4 7 -2 12 4 12 7 0 14 -9 17 -19 5 -21 9 -22 88 -22 77 0 86 2 80 11 -3
5 -1 11 5 15 7 4 10 367 10 1091 0 1060 0 1084 -19 1103 -24 24 -80 36 -113
25 -12 -4 -29 -7 -35 -6 -7 2 -13 -2 -13 -8 0 -5 -12 -10 -27 -11 -25 0 -26
-1 -8 -9 17 -7 17 -9 3 -9 -16 -1 -18 -12 -18 -82 l0 -82 -77 7 c-42 3 -198 7
-347 8 l-271 3 305 5 305 5 -290 4 -290 3 -122 129 c-111 115 -123 131 -123
164 0 72 63 145 126 145 48 0 73 -18 195 -138 l107 -105 26 19 c14 11 26 22
26 25 0 3 -53 58 -118 121 -121 119 -179 158 -232 158 -77 0 -190 -101 -190
-170 0 -17 -4 -20 -21 -15 -20 7 -59 -18 -59 -38 0 -5 66 -74 147 -153 l146
-144 -54 0 c-53 0 -55 1 -89 47 -19 26 -57 61 -84 78 -44 27 -58 30 -125 29
-49 0 -87 -6 -106 -16 -39 -21 -88 -68 -111 -107 l-18 -31 -111 -2 -110 -2
110 -5 110 -6 -160 -7 c-88 -5 -476 -8 -862 -8 -661 0 -702 1 -702 18 -1 39
-5 52 -14 52 -6 0 -7 3 -4 7 4 3 -3 11 -16 18 -12 6 -21 16 -20 21 1 6 -25 11
-58 12 -37 2 -59 -1 -59 -8 0 -6 -4 -9 -10 -5 -5 3 -7 12 -3 20 3 9 -1 15 -10
15 -8 0 -17 4 -19 10 -5 16 -131 12 -146 -5 -4 -5 -2 -5 5 -2 7 5 9 0 5 -15
-5 -21 -6 -21 -19 10 -7 17 -19 32 -26 32 -8 0 -7 -4 3 -11 11 -8 7 -9 -16 -4
-25 5 -38 0 -62 -19 -25 -22 -31 -24 -36 -10 -3 9 -3 20 0 26 5 7 1 7 -11 1
-10 -6 -26 -8 -35 -6 -10 3 -33 -2 -52 -10 -18 -8 -44 -19 -58 -25 -14 -6 -19
-11 -12 -11 10 -1 10 -6 2 -21 -6 -11 -8 -20 -4 -20 4 0 -5 -9 -20 -21 -25
-20 -36 -21 -187 -18 -88 2 -150 1 -137 -3 37 -10 330 -9 323 1 -3 5 -1 12 4
15 8 5 21 -15 21 -31 0 -7 -621 5 -628 12 -3 3 39 6 94 7 l99 2 -92 3 -93 4
-1 32 -2 32 -7 -35 -7 -35 -2 32 c-1 37 -33 59 -104 72 -26 4 -41 12 -39 20 1
7 -2 10 -8 6 -6 -3 -35 5 -65 19 -29 14 -61 26 -69 26 -36 0 -12 18 32 25 26
4 63 12 83 19 32 11 38 11 48 -6 14 -23 20 -22 51 3 23 20 23 22 7 34 -16 12
-16 13 -1 19 9 4 19 4 22 1 3 -3 -1 -5 -8 -5 -7 0 -11 -3 -8 -6 6 -6 68 23 68
32 0 2 -9 0 -20 -6 -11 -6 -20 -7 -20 -3 0 5 21 20 47 33 27 14 60 36 74 50
15 14 46 44 70 68 25 23 50 42 57 42 6 0 12 7 12 16 0 10 6 14 14 11 18 -7 40
18 30 34 -4 7 -2 10 7 7 22 -7 22 -78 1 -118 -11 -19 -36 -48 -56 -64 -31 -26
-46 -30 -96 -31 -47 0 -62 -4 -74 -20 -9 -11 -16 -23 -16 -26 0 -13 54 -29
101 -29 87 0 171 61 215 155 29 61 29 79 4 152 -23 69 -21 89 11 115 13 11 18
16 10 12 -9 -4 -12 -2 -9 7 3 8 11 13 17 11 7 -1 10 2 6 8 -3 5 0 10 7 11 7 0
4 4 -7 9 -18 8 -18 9 5 10 23 1 23 2 5 10 -18 8 -17 9 8 9 36 1 88 23 106 45
13 15 12 20 -7 39 -19 18 -25 20 -42 9 -28 -17 -49 -15 -45 6 2 9 4 26 5 37 2
17 3 16 9 -5 7 -23 8 -22 12 12 4 32 3 35 -11 25 -9 -7 -8 -4 3 10 l18 21 51
-54 c28 -30 54 -54 57 -54 3 0 14 12 25 26 l18 26 -46 47 c-38 38 -44 49 -34
60 11 11 9 11 -9 2 -21 -11 -22 -10 -14 11 5 13 17 23 27 23 11 0 19 5 19 10
0 6 4 16 9 24 6 9 5 12 -1 8 -6 -4 -10 4 -10 19 0 14 4 23 11 21 6 -3 10 -10
8 -16 -1 -7 2 -10 7 -7 5 3 26 -1 47 -10 26 -11 59 -15 105 -12 86 5 150 42
194 112 27 45 30 58 30 132 0 98 -13 121 -48 86 -18 -19 -22 -34 -22 -85 0
-46 -6 -71 -22 -97 -28 -46 -89 -80 -142 -80 -43 0 -111 23 -111 37 0 4 66 74
148 156 l147 148 -30 25 c-43 36 -94 61 -142 69 -23 3 -44 13 -47 21 -4 10 -2
12 6 8 7 -4 8 -3 4 4 -4 7 -14 12 -22 12 -8 0 -14 5 -14 10 0 6 -7 10 -15 10
-8 0 -24 9 -35 20 -11 11 -21 20 -22 19 -2 0 -14 2 -28 6 -31 7 -100 -20 -100
-39 0 -8 13 -24 30 -36 25 -18 28 -25 20 -41 -12 -22 -20 -24 -43 -6 -17 12
-31 97 -16 97 4 0 6 20 4 45 -2 25 0 47 5 50 9 6 9 165 -1 165 -3 0 -6 11 -6
25 0 13 3 22 8 20 4 -3 11 0 15 6 5 8 3 9 -6 4 -10 -6 -12 -4 -7 8 3 9 1 19
-5 23 -6 4 -8 3 -4 -4 3 -6 1 -14 -6 -18 -7 -4 -10 -4 -6 1 4 4 3 17 -3 28 -9
15 -8 18 3 12 7 -3 2 4 -12 16 -17 15 -19 20 -7 16 9 -4 17 -2 17 3 0 6 -7 10
-15 10 -8 0 -15 4 -15 9 0 5 -9 11 -20 14 -11 3 -24 17 -30 32 -5 14 -15 23
-20 20 -13 -8 -42 14 -35 25 3 4 -3 14 -13 21 -15 13 -16 12 -3 -3 16 -21 3
-23 -24 -4 -62 42 -238 87 -345 87 -69 1 -73 2 -50 14 16 9 19 14 9 15 -24 0
-19 30 5 31 17 1 18 2 4 6 -10 2 -18 9 -18 14 0 6 5 7 10 4 6 -3 10 -1 10 4 0
6 -5 11 -10 11 -6 0 -5 6 2 14 8 8 15 10 19 4 3 -5 9 -2 12 7 4 9 3 13 -2 10
-15 -9 -24 15 -11 30 8 9 8 15 0 20 -6 3 -8 11 -4 16 3 5 11 6 17 2 7 -4 6 0
-2 10 -7 9 -20 17 -27 17 -8 0 -11 6 -8 15 4 9 -3 16 -21 21 -20 5 -23 9 -13
15 10 7 9 9 -5 9 -12 0 -16 5 -11 13 5 9 4 9 -6 0 -10 -9 -33 -1 -104 35 -50
25 -95 46 -101 47 -5 0 -30 7 -55 15 -25 7 -52 15 -60 18 -23 7 -314 14 -320
8z m280 -50 c136 -25 288 -93 341 -154 17 -19 29 -36 27 -37 -2 -2 -44 11 -93
30 -298 111 -587 94 -880 -51 -161 -80 -350 -230 -477 -377 -34 -40 -65 -74
-70 -76 -5 -2 -6 14 -3 35 32 190 307 433 630 558 205 79 365 101 525 72z
m210 -189 c52 -14 111 -32 131 -41 l36 -15 -16 -107 -16 -107 -130 -3 c-220
-3 -382 -47 -630 -169 -155 -76 -301 -167 -416 -260 l-66 -54 -112 107 -112
107 69 80 c203 236 440 396 683 459 134 35 127 35 314 32 145 -3 184 -7 265
-29z m-60 -633 c238 -60 464 -191 577 -334 24 -30 58 -73 77 -95 18 -22 47
-65 64 -95 28 -50 32 -68 43 -195 17 -205 9 -299 -35 -391 -65 -137 -143 -236
-260 -330 -149 -119 -266 -163 -434 -164 -207 0 -575 116 -651 206 l-33 39 17
-35 c10 -19 26 -45 37 -57 l20 -21 -26 -17 c-57 -38 -205 1 -290 75 -65 58
-98 148 -76 214 13 40 44 56 66 34 13 -12 12 -19 -1 -52 -18 -43 -13 -89 15
-131 l19 -28 -2 61 c-2 46 2 65 15 78 16 16 19 16 42 1 22 -15 24 -20 15 -49
-14 -51 -11 -83 12 -112 18 -23 27 -26 82 -25 34 1 49 4 32 6 -59 7 -75 14
-91 38 -13 20 -14 30 -4 60 13 41 18 42 70 15 93 -47 175 -30 217 45 33 57 30
65 -14 49 -83 -29 -148 -10 -224 66 -74 74 -78 92 -27 133 50 40 169 186 238
292 98 151 177 340 219 525 40 176 53 219 70 224 29 9 114 -3 221 -30z m821
-564 c10 -6 28 -29 39 -50 26 -51 34 -51 25 0 -6 36 -5 40 14 40 18 0 21 -6
21 -48 0 -27 -7 -71 -15 -99 -15 -51 -67 -133 -85 -133 -20 0 -11 83 11 106
30 32 28 73 -5 101 -16 14 -30 38 -33 58 -6 38 -2 41 28 25z m-1098 -1060 c3
-14 1 -17 -12 -13 -9 3 -2 -4 14 -16 35 -25 88 -41 130 -41 37 1 109 26 113
40 2 5 24 10 49 10 44 0 45 -1 38 -27 -8 -35 -32 -62 -65 -75 -51 -20 -135
-28 -193 -18 -53 8 -65 15 -108 60 -26 27 -53 50 -58 50 -6 0 -11 10 -11 23 0
19 5 22 49 24 40 2 50 -1 54 -17z m-72 -63 c93 -62 139 -216 109 -367 -5 -27
-4 -52 2 -63 6 -13 6 -23 -3 -33 -15 -19 -39 -18 -80 4 -23 12 -57 17 -109 17
-66 0 -83 -4 -147 -36 -59 -30 -73 -34 -73 -20 1 34 39 63 115 87 l40 13 -33
0 c-18 1 -49 -6 -69 -14 -46 -19 -43 -20 -43 18 1 147 106 364 195 403 42 19
57 17 96 -9z m430 -114 c86 -91 89 -98 89 -225 l0 -114 -71 -85 c-72 -84 -108
-146 -109 -184 -1 -50 -1 -50 -247 1 -14 2 -20 10 -17 21 2 10 8 55 13 100 7
67 14 88 36 114 19 24 24 38 19 53 -4 12 -7 55 -6 96 2 65 -11 147 -33 216 -6
19 -4 20 62 13 80 -8 158 -2 193 17 34 18 31 19 71 -23z m1397 21 c28 -19 59
-80 63 -119 5 -65 -1 -87 -35 -121 -38 -38 -63 -42 -96 -16 -21 17 -21 20 -9
77 10 52 10 68 -5 119 -14 48 -15 60 -4 67 21 14 62 10 86 -7z m2255 2 c18 -7
43 -25 56 -40 l24 -26 -153 0 -154 0 30 31 c16 17 38 35 49 39 32 14 113 11
148 -4z m-2393 -24 c39 -40 54 -98 39 -157 -26 -102 -137 -130 -141 -35 0 19
-5 58 -10 87 -9 54 -3 78 30 116 22 25 49 21 82 -11z m-174 10 c12 -8 21 -56
32 -169 4 -39 11 -75 15 -79 12 -12 -14 -34 -40 -34 -65 0 -107 68 -108 173 0
63 2 71 28 93 28 24 53 30 73 16z m484 -32 c41 -41 38 -117 -6 -170 -28 -32
-64 -39 -83 -16 -9 11 -9 25 -1 56 6 23 8 61 4 87 -5 33 -3 47 7 54 23 15 58
10 79 -11z m-922 -99 l292 -1 12 -27 c39 -97 62 -134 90 -149 34 -18 89 -12
108 11 8 9 21 13 36 9 15 -4 36 1 58 14 33 19 34 19 50 1 29 -34 111 -18 139
28 7 11 13 9 34 -7 14 -11 33 -20 43 -20 28 0 71 40 90 83 l18 40 934 6 c1205
6 1097 6 1666 3 l492 -2 0 -899 0 -898 -2107 -7 c-1160 -3 -2152 -9 -2205 -12
l-98 -6 0 401 0 401 25 12 c13 6 31 25 40 43 19 41 19 40 -2 61 -12 12 -14 19
-6 21 7 3 24 14 38 25 21 16 25 27 23 56 -2 31 -8 38 -33 46 -16 6 -31 11 -33
12 -2 1 8 13 22 27 47 47 28 108 -40 126 l-29 7 -3 303 -2 302 27 -5 c16 -2
160 -5 321 -5z m-1071 -252 c28 -9 30 -13 27 -52 -2 -23 -5 -81 -8 -130 -4
-83 -3 -87 18 -91 11 -2 77 -15 146 -28 130 -24 132 -25 116 -73 -8 -24 -10
-27 67 92 43 65 86 103 116 103 20 0 34 -45 32 -102 -1 -54 0 -58 28 -73 20
-10 57 -15 109 -15 65 0 84 -4 106 -21 30 -24 34 -59 8 -82 -25 -22 -86 -47
-119 -48 -27 0 -28 -1 -5 -11 16 -8 36 -8 77 2 44 11 57 11 70 0 47 -39 -21
-109 -116 -118 -32 -3 -47 -8 -41 -14 10 -10 83 -14 111 -7 23 6 24 -25 2 -53
-12 -15 -43 -32 -78 -43 -56 -18 -57 -19 -31 -29 36 -15 22 -39 -38 -62 -184
-70 -334 55 -338 283 0 46 -4 83 -8 83 -4 0 -12 -16 -19 -35 -7 -20 -20 -35
-29 -35 -29 0 -215 48 -289 75 -156 57 -167 77 -157 275 10 182 13 192 61 207
51 15 143 16 182 2z m-295 -339 c3 -56 10 -85 22 -99 16 -18 14 -22 -35 -100
-29 -45 -50 -83 -48 -86 3 -2 29 28 60 68 38 50 61 71 74 70 11 -1 72 -20 135
-42 l115 -40 12 -78 c6 -43 12 -105 13 -138 0 -51 2 -57 12 -40 17 29 14 152
-6 204 -9 24 -15 45 -14 47 2 1 41 -6 87 -15 94 -19 99 -25 100 -99 2 -114 83
-196 207 -209 48 -5 54 -9 63 -36 6 -16 11 -84 11 -150 0 -119 0 -119 -22
-112 -88 28 -117 29 -255 9 -183 -25 -421 -26 -513 -1 -81 22 -197 87 -265
149 -66 60 -110 143 -179 340 -30 84 -57 160 -60 168 -5 12 14 27 71 60 89 51
395 209 404 210 4 0 9 -36 11 -80z m-498 -212 c54 -283 105 -397 232 -522 150
-147 409 -203 694 -151 109 20 278 26 343 12 27 -6 37 -13 37 -27 0 -19 -7
-20 -97 -20 -54 0 -156 -7 -228 -15 -227 -25 -316 -28 -410 -16 -248 33 -410
152 -526 386 -51 104 -89 230 -89 297 0 64 34 107 44 56z m1298 -795 c3 -32 6
-137 7 -233 2 -163 3 -176 23 -197 12 -13 38 -26 57 -29 27 -5 44 -17 66 -47
17 -22 66 -70 110 -105 91 -73 114 -108 99 -149 -13 -37 -47 -53 -115 -53 -76
0 -172 48 -262 132 -79 74 -72 47 -117 412 -17 132 -33 258 -36 278 -5 36 -5
37 33 41 21 2 59 4 85 5 l46 2 4 -57z m-685 7 l55 0 -7 -27 c-27 -107 -56
-251 -65 -321 -14 -107 -4 -142 70 -257 32 -49 60 -97 61 -105 6 -30 -11 -67
-36 -78 -98 -45 -244 43 -334 201 -40 71 -42 56 47 365 l67 234 44 -6 c24 -3
68 -6 98 -6z m5503 -308 c0 -36 -4 -44 -26 -52 -72 -28 -134 -1 -134 58 l0 37
80 0 80 0 0 -43z"/>
<path d="M906 5036 c-33 -12 -61 -27 -63 -33 -2 -6 3 -28 11 -48 9 -21 16 -38
16 -40 0 -1 -18 -8 -40 -15 -61 -20 -64 -30 -36 -94 27 -61 36 -65 93 -41 19
8 37 15 39 15 2 0 13 -18 24 -40 23 -45 34 -48 103 -22 68 26 73 34 54 82 -15
38 -15 42 1 47 58 20 82 34 81 45 0 7 -10 33 -22 58 -24 48 -39 53 -113 35
-28 -6 -32 -4 -38 18 -6 26 -31 57 -44 56 -4 0 -34 -10 -66 -23z"/>
<path d="M2035 4010 c5 -15 -2 -23 -33 -39 -60 -31 -109 -91 -117 -145 -16
-104 21 -222 82 -262 18 -12 29 -25 25 -29 -4 -4 4 -5 18 -1 14 3 44 9 68 12
23 4 42 11 42 16 0 6 -14 7 -32 3 l-32 -7 26 31 c72 85 37 269 -60 318 l-44
22 42 11 c24 6 53 9 65 6 61 -15 110 -88 124 -184 l9 -57 1 68 c1 42 -5 79
-13 96 -9 16 -12 38 -9 52 5 20 4 22 -8 12 -22 -18 -49 8 -49 47 0 32 0 32
-17 11 -23 -27 -59 -19 -67 15 -4 13 -11 24 -17 24 -6 0 -8 -9 -4 -20z"/>
<path d="M1060 3676 c0 -8 7 -21 14 -29 13 -13 12 -17 -9 -37 -24 -23 -25 -23
-45 -5 -27 24 -37 12 -16 -19 24 -37 11 -59 -30 -53 -41 7 -43 -4 -7 -33 22
-17 25 -25 17 -38 -6 -9 -23 -18 -38 -20 -22 -3 -25 -6 -15 -18 6 -8 24 -14
39 -14 18 0 30 -7 37 -22 19 -41 84 -108 124 -128 48 -25 87 -25 141 -1 24 11
54 24 68 30 25 11 24 11 -6 8 l-31 -3 4 65 c4 56 1 73 -19 111 -44 83 -146
131 -211 99 -21 -10 -21 -9 1 10 31 27 97 44 139 36 44 -8 108 -66 138 -124
29 -55 33 -34 5 27 -50 109 -107 148 -201 138 -52 -6 -60 -5 -71 14 -15 23
-28 26 -28 6z"/>
<path d="M1950 3288 c-12 -35 -24 -48 -60 -66 -42 -22 -54 -23 -165 -19 -120
5 -233 28 -246 49 -4 7 -14 -4 -23 -27 -19 -45 -12 -59 13 -26 10 13 22 21 27
18 5 -3 36 -49 69 -101 32 -53 74 -110 91 -127 28 -27 37 -31 67 -25 47 9 109
70 147 146 17 33 46 77 64 98 39 43 49 71 38 101 -7 19 -9 17 -22 -21z"/>
<path d="M2870 4561 c-56 -30 -127 -113 -140 -162 -14 -50 -7 -137 14 -178 22
-42 88 -105 131 -126 61 -29 157 -26 220 7 28 14 57 34 66 44 62 74 85 176 55
248 l-16 39 -25 -23 c-21 -20 -25 -33 -25 -82 0 -87 -27 -133 -95 -164 -60
-28 -101 -27 -157 2 l-31 16 151 151 c83 82 149 154 146 159 -4 5 -31 26 -62
45 -48 31 -66 37 -127 40 -55 3 -77 -1 -105 -16z m185 -82 c6 -6 -35 -54 -110
-130 l-120 -120 -17 38 c-33 73 -20 129 46 192 25 24 49 36 78 41 44 6 105 -4
123 -21z"/>
<path d="M6465 4168 c-84 -66 -118 -127 -118 -213 0 -87 50 -176 122 -218 l31
-18 0 92 0 92 -23 -21 c-13 -12 -26 -22 -29 -22 -12 0 -28 64 -28 112 0 43 5
54 41 93 36 38 40 48 37 85 l-3 42 -30 -24z"/>
<path d="M6206 3896 c-9 -19 -16 -39 -16 -44 0 -6 -8 -8 -18 -5 -10 2 -26 -5
-37 -17 -19 -21 -19 -21 150 -190 94 -94 172 -170 175 -170 3 0 13 12 24 26
l18 26 -121 122 c-112 114 -121 126 -121 161 0 22 7 46 17 57 15 17 15 20 -7
43 -31 33 -45 32 -64 -9z"/>
<path d="M5885 3800 c-18 -20 -18 -22 35 -75 l54 -55 -27 -28 c-32 -34 -33
-43 -7 -67 20 -18 21 -18 53 13 l33 32 109 -110 c122 -122 156 -141 218 -121
19 7 43 21 53 32 17 19 17 20 -4 42 -19 18 -25 20 -42 9 -46 -28 -69 -16 -179
93 l-106 106 32 29 33 29 -24 28 -25 28 -33 -32 -34 -33 -49 50 c-27 28 -54
50 -61 50 -6 0 -19 -9 -29 -20z"/>
<path d="M5860 3555 l-23 -25 22 -19 22 -19 -43 -7 c-55 -9 -85 -25 -126 -66
-160 -158 -46 -429 180 -429 122 0 220 82 237 199 l6 46 24 -34 c52 -72 34
-163 -44 -226 -31 -25 -45 -30 -88 -28 -41 1 -57 -3 -74 -20 -29 -26 -29 -31
2 -45 40 -18 121 -15 163 7 88 46 160 157 148 231 -13 84 -41 122 -213 293
l-169 168 -24 -26z m93 -159 c126 -54 147 -238 35 -306 -71 -43 -152 -34 -218
26 -87 79 -79 212 18 276 33 22 119 24 165 4z"/>
<path d="M2870 561 c-56 -30 -127 -113 -140 -162 -14 -50 -7 -137 14 -178 22
-42 88 -105 131 -126 61 -29 157 -26 220 7 28 14 57 34 66 44 62 74 85 176 55
248 l-16 39 -25 -23 c-21 -20 -25 -33 -25 -82 0 -87 -27 -133 -95 -164 -60
-28 -101 -27 -157 2 l-31 16 151 151 c83 82 149 154 146 159 -4 5 -31 26 -62
45 -48 31 -66 37 -127 40 -55 3 -77 -1 -105 -16z m185 -82 c6 -6 -35 -54 -110
-130 l-120 -120 -17 38 c-33 73 -20 129 46 192 25 24 49 36 78 41 44 6 105 -4
123 -21z"/>
</g>
</svg>
